<?xml version="1.0" encoding="utf-8"?>
<!-- Generator: SketchAPI 2022.10.18.0 https://api.sketch.io -->
<svg version="1.1" xmlns="http://www.w3.org/2000/svg" xmlns:xlink="http://www.w3.org/1999/xlink" xmlns:sketchjs="https://sketch.io/dtd/">
<path d="M221.892 132.322c.024 60.5-49.025 109.56-109.537 109.56-60.499 0-109.548-49.06-109.536-109.56C2.807 71.81 51.856 22.749 112.355 22.749c60.512 0 109.561 49.061 109.537 109.573z" sketchjs:uid="1" style="fill: #fff; stroke: #000; stroke-width: 3.9996216; stroke-linecap: round; stroke-linejoin: round;"/>
<path d="M202.17 72.42c-5.4 6.55-6.24 17.01-4.56 21.04 1.24 2.98 9.47 4.44 17.35 5.18a107.9 107.9 0 0 0-12.79-26.22zM8.75 101.81a107.9 107.9 0 0 0-4.4 30.63c0 5.56.42 11.03 1.23 16.36 8.18 4.75 18.8 20.39 27.85 21.57 11.34 1.48 8.88-21.69 1.98-23.17-6.91-1.48-9.86-12.33-10.36-24.16-.33-7.94-4.68-15.67-16.3-21.23zm211.54 27.73a21.08 21.08 0 0 0-7.89 6.32c-11.83 15.28-21.69 4.93-33.53 10.35-11.83 5.43-3.94 19.23.5 32.54 3.21 9.64-2.61 28.82 4.4 34.76 22.44-19.8 36.59-48.79 36.58-81.07 0-.97-.01-1.93-.03-2.9-.01.01-.03 0-.03 0zm-146.92 9.28c4.93 15.28-5.92 9.86-7.89 20.21-1.97 10.36 33.03 13.31 38.95 34.51 5.91 21.2 32.54 9.86 32.04-1.97-.49-11.83-17.74-17.25-13.31-24.16 4.44-6.9 13.31-21.2 13.31-21.2l-63.1-7.39z" sketchjs:uid="2" style="fill: #4d4d4d; fill-rule: evenodd;"/>
<path d="M215.27 94.72c.07 1.69.12 3.4.12 5.1 0 60.46-49.06 109.53-109.53 109.53-47.26 0-87.59-30-102.94-71.97 2.66 58.11 50.68 104.47 109.44 104.47 60.47 0 109.53-49.07 109.53-109.53 0-13.2-2.34-25.87-6.62-37.6z" sketchjs:uid="3" style="fill-opacity: 0.314;"/>
<path d="M120.53 242.88c0 9.09 14.67 9.38 32.74 9.38s32.73.69 32.73-9.38c0-17.72-14.66-32.1-32.73-32.1s-32.74 14.38-32.74 32.1z" sketchjs:uid="4" style="fill: #333; stroke: #000; stroke-width: 4; stroke-linecap: round; stroke-linejoin: round;"/>
<path d="M196.99 97.02c0 45.17-55.12 81.84-81.84 81.84-25.72 0-81.84-36.67-81.84-81.84s24.63-81.84 81.84-81.84c57.22 0 81.84 36.67 81.84 81.84z" sketchjs:uid="5" style="fill-opacity: 0.314;"/>
<path d="M165.86 251.66c0-16.37-9.44-26.44-9.44-26.44s3.77 13.85 3.14 26.44h6.3z" sketchjs:uid="6" style="stroke: #000; fill-rule: evenodd; fill-opacity: 0.314; stroke-width: 4; stroke-linejoin: round;"/>
<path d="M109.7 2.014c-30.134.61-50.937 11.653-63.63 28.75C22.006 28.176 2.008 54.389 2.008 54.389S20.899 63.84 34.07 55.92c-2.399 8.71-3.562 18.11-3.562 27.91 0 45.17 56.125 81.84 81.842 81.84 26.72 0 81.85-36.67 81.85-81.84 0-9.8-1.17-19.2-3.57-27.91 13.17 7.92 32.03-1.531 32.03-1.531s-19.97-26.205-44.03-23.625c-13.06-17.595-34.71-28.75-66.28-28.75-.89 0-1.78-.018-2.65 0z" sketchjs:uid="7" style="fill: #fff; stroke: #000; stroke-width: 4; stroke-linecap: round; stroke-linejoin: round;"/>
<path d="M126.57 3.98c25.72 17.92-3.05 17.14-8.75 23.28-6.5 7-9 17-1.5 23.5s46 17.5 51.5-.5c2.83-9.28-.57-20.8-2.35-30.97-10.02-7.86-22.9-13.24-38.9-15.31z" sketchjs:uid="8" style="fill: #4d4d4d; fill-rule: evenodd;"/>
<path d="M108.725 71.839c.005 12.517-10.143 22.667-22.663 22.667-12.517 0-22.665-10.15-22.662-22.667-.003-12.52 10.145-22.67 22.662-22.67 12.52 0 22.668 10.15 22.663 22.67zM161.455 71.839c.005 12.517-10.143 22.667-22.663 22.667-12.517 0-22.665-10.15-22.662-22.667-.003-12.52 10.145-22.67 22.662-22.67 12.52 0 22.668 10.15 22.663 22.67z" sketchjs:uid="9" style="fill: #fff; stroke: #000; stroke-width: 4.00005575; stroke-linecap: round; stroke-linejoin: round;"/>
<path d="M141.311 75.833a7.555 7.555 0 0 1-15.108 0 7.555 7.555 0 1 1 15.108 0zM99.281 75.833a7.555 7.555 0 0 1-15.108 0 7.555 7.555 0 1 1 15.108 0z" sketchjs:uid="10"/>
<path d="M112.35 115.26c-19.861 0-35.968 13.22-35.968 29.5 0 3.02.565 5.95 1.594 8.69 12.712 7.74 25.394 12.22 34.374 12.22 9.2 0 21.76-4.33 34.28-11.88 1.12-2.84 1.72-5.88 1.72-9.03 0-16.28-16.14-29.5-36-29.5z" sketchjs:uid="11" style="fill: #ffd5e5; stroke: #000; stroke-width: 4; stroke-linecap: round; stroke-linejoin: round;"/>
<path d="M190.91 57.01l-1.87 2.66c.25 3.08.34 6.2.34 9.38 0 45.17-55.12 81.84-81.84 81.84-20.707 0-61.098-23.76-76.064-56.6 7.616 40.25 57.172 71.38 80.874 71.38 26.72 0 81.85-36.67 81.85-81.84 0-9.4-1.08-18.41-3.29-26.82z" sketchjs:uid="12" style="fill-opacity: 0.314;"/>
<path d="M105.54 242.88c0 9.09-14.67 9.38-32.74 9.38s-32.73.69-32.73-9.38c0-17.72 14.66-32.1 32.73-32.1s32.74 14.38 32.74 32.1z" sketchjs:uid="13" style="fill: #333; stroke: #000; stroke-width: 4; stroke-linecap: round; stroke-linejoin: round;"/>
<path d="M60.21 251.66c0-16.37 9.44-26.44 9.44-26.44s-3.77 13.85-3.14 26.44h-6.3z" sketchjs:uid="14" style="stroke: #000; fill-rule: evenodd; fill-opacity: 0.314; stroke-width: 4; stroke-linejoin: round;"/>
<path d="M128.95 140.47c-2.29 3.97-6.5 5.84-9.4 4.16-2.89-1.67-3.38-6.25-1.09-10.22s6.5-5.84 9.4-4.16c2.89 1.67 3.38 6.24 1.09 10.22zM96.21 140.47c2.29 3.97 6.5 5.84 9.4 4.16 2.89-1.67 3.38-6.25 1.09-10.22s-6.5-5.84-9.4-4.16c-2.89 1.67-3.38 6.24-1.09 10.22z" sketchjs:uid="15"/>
<path d="M53.32 32.27c-7.34-1.33-15.5-21.5-12.5-25.5s26.37 4.46 27 13.5c.55 7.97-5.39 13.65-14.5 12zM170.21 32.27c7.34-1.33 15.5-21.5 12.5-25.5s-26.37 4.46-27 13.5c-.55 7.97 5.39 13.65 14.5 12z" sketchjs:uid="16" style="fill: #333; stroke: #000; fill-rule: evenodd; stroke-width: 4;"/>
</svg>